<svg xmlns="http://www.w3.org/2000/svg" width="256" height="256"><path fill-opacity=".016" d="M0 128.004v128.004l128.25-.254 128.25-.254.254-127.75L257.008 0H0v128.004m.485.496c0 70.4.119 99.053.265 63.672.146-35.38.146-92.98 0-128C.604 29.153.485 58.1.485 128.5" fill="#1976D2" fill-rule="evenodd"/><path fill-opacity=".171" d="M113.5.608C96.266 3.161 83.549 7.16 69 14.603c-53.957 27.605-80.695 89.87-64.037 149.125 6.541 23.269 22.273 47.42 40.719 62.512 15.759 12.893 35.191 22.533 54.15 26.862 13.02 2.974 35.095 3.631 48.246 1.438 16.825-2.807 34.083-9.049 46.422-16.79 32.345-20.292 52.752-50.415 60.126-88.75 2.016-10.481 3.021-34 1.453-34-.593 0-1.079-1.321-1.079-2.935 0-4.081-2.627-16.3-5.173-24.065C237.475 50.338 206.382 19.04 169 6.641 156.152 2.38 147.211.924 131.5.535c-8.25-.204-16.35-.171-18 .073m-7.903 3.999C54.727 13.793 13.443 55.375 4.548 106.385c-1.984 11.377-1.984 31.853 0 43.23 6.806 39.027 32.439 73.16 68.241 90.867 29.139 14.412 63.451 16.751 94.762 6.46 18.976-6.237 34.23-15.723 48.949-30.442 24.255-24.255 36.672-54.222 36.672-88.5 0-33.625-12.549-64.171-36.172-88.048-18.232-18.429-42.174-31.008-67.385-35.404-11.022-1.922-33.213-1.893-44.018.059m24.601 31.857c-.617 1.356-1.844 6.026-2.726 10.379-1.321 6.52-1.402 9.03-.456 14.243.631 3.481 1.756 7.507 2.501 8.947 1.724 3.334 8.772 9.727 12.285 11.144 4.157 1.676 13.01 3.677 13.611 3.077.295-.295-1.155-2.611-3.223-5.145-5.177-6.346-8.761-12.083-11.699-18.726-3.593-8.123-3.021-7.98 1.402.351 5.092 9.593 10.975 16.798 12.484 15.289.669-.669 1.12-4.841 1.116-10.323-.008-10.353-1.548-14.434-8.239-21.841-3.469-3.84-12.495-9.829-14.843-9.85-.6-.005-1.595 1.1-2.213 2.455m36.223 26.432c-6.941 3.153-10.639 10.113-8.95 16.846l.692 2.755 2.168-2.997c1.193-1.648 3.454-4.348 5.024-5.999 2.66-2.797 2.643-2.73-.25.977-1.708 2.188-3.105 4.384-3.105 4.882 0 1.56 7.769-.059 10.867-2.266 2.951-2.1 6.415-8.118 7.683-13.344.665-2.743.653-2.75-4.692-2.728-3.036.012-7.125.825-9.437 1.874M68 119v31h20l.049-13.75.049-13.75 13.33 13.782 13.33 13.783 55.871-.283 55.871-.282 4.654-2.736c7.61-4.473 11.053-14.595 7.382-21.695-1.721-3.327-7.076-8.069-9.113-8.069-2.317 0-1.622-1.379 1.625-3.227 3.862-2.198 6.338-7.903 5.46-12.581-.963-5.135-3.118-7.82-8.341-10.393L223.5 88.5l-54.264-.291-54.264-.29-13.236 11.986L88.5 111.892l-.281-11.946L87.938 88H68v31m-32.793-14.416c-12.569 6.264-21.943 24.596-18.269 35.728.651 1.974 2.802 5.008 4.779 6.745 3.363 2.952 3.998 3.13 9.82 2.76 4.558-.29 8.026-1.311 12.956-3.813 5.895-2.993 10.596-7.249 9.365-8.479-.227-.227-3.492 1.137-7.256 3.031C41.687 143.03 38.428 144 35.035 144c-5.826 0-8.069-2.126-8.766-8.308l-.495-4.389 5.501-.568c13.052-1.347 24.05-11.858 22.28-21.294-1.381-7.361-9.18-9.426-18.348-4.857M186 107.473V112h11.935c14.809 0 17.31-.778 16.878-5.249l-.313-3.251-14.25-.277-14.25-.278v4.528m-151.339 2.52c-3.263 2.865-6.688 9.271-8.216 15.366-.705 2.811-.66 2.848 2.669 2.149 10.173-2.135 15.875-7.362 15.882-14.558.007-6.59-4.673-7.929-10.335-2.957m73.922 5.873c-.295.477.466 1.714 1.691 2.75 2.22 1.879 2.221 1.879.474-.197-.964-1.145-1.451-2.382-1.084-2.75.368-.368.396-.669.062-.669-.335 0-.849.39-1.143.866M.385 128c0 6.875.16 9.688.355 6.25.196-3.437.196-9.062 0-12.5-.195-3.437-.355-.625-.355 6.25M186 130v5h14.429c15.286 0 17.571-.652 17.571-5.015 0-4.009-3.567-4.985-18.223-4.985H186v5m-140.303-3.25c-.231.412-.716 1.988-1.078 3.5l-.657 2.75h10.019c5.51 0 10.019-.115 10.019-.257 0-.141.419-1.716.93-3.5l.93-3.243h-9.871c-5.429 0-10.06.338-10.292.75M20 161.5c0 1.925.45 3.5 1 3.5s1-.482 1-1.071c0-.59.706-.366 1.569.498 1.085 1.084 2.092 1.29 3.261.664.93-.498 2.972-.66 4.537-.361 1.836.351 3.157.052 3.724-.843.632-.998.883-1.036.894-.137.008.688.745 1.25 1.637 1.25 1.259 0 1.369-.306.488-1.367-.863-1.04-.773-1.668.378-2.623 1.284-1.066 1.512-.86 1.512 1.368 0 1.748.539 2.622 1.617 2.622 1.185 0 1.489-.667 1.138-2.5-.263-1.375-.09-2.5.384-2.5.473 0 .861.845.861 1.878 0 2.452 2.315 4.322 4.373 3.532 1.795-.688 2.363-7.41.627-7.41-.55 0-1 1.377-1 3.059 0 1.785-.417 2.802-1 2.441-.55-.34-1-1.7-1-3.022 0-2.307-.266-2.4-6.587-2.292-5.647.096-6.695.401-7.338 2.139-.736 1.991-.76 1.988-1.319-.149-.818-3.127-2.685-2.679-3.949.948-.946 2.714-1.217 2.895-2.064 1.381-.693-1.238-.588-1.983.362-2.57.735-.454 1.023-1.14.64-1.523-.383-.383-1.383-.128-2.221.568-1.042.865-1.524.91-1.524.142 0-.617-.45-1.122-1-1.122s-1 1.575-1 3.5m33 .094c0 1.873.45 3.406 1 3.406s1-.398 1-.883c0-.486.9-1.119 2-1.407 1.265-.33 2-.03 2 .816 0 1.793 3.918 2.956 5.301 1.573.799-.799.43-1.116-1.351-1.162l-2.45-.064 2.5-1.072 2.5-1.072-2.5-.765-2.5-.765 2.75-.099c2.262-.082 2.75.325 2.75 2.295 0 2.267.321 2.392 6 2.339 3.446-.032 6-.499 6-1.095 0-.629.474-.565 1.2.161 2.012 2.012 2.8 1.364 2.8-2.3 0-1.925-.45-3.5-1-3.5s-1.014.787-1.03 1.75c-.029 1.667-.079 1.667-1.05 0-1.509-2.591-2.909-2.125-2.999 1l-.079 2.75-1.004-2.75c-1.345-3.682-3.297-3.473-4.678.5l-1.13 3.25.459-3.247.46-3.248-8.475.092-8.474.092v3.405m30-.094c0 1.925.45 3.5 1 3.5s1-1.575 1-3.5-.45-3.5-1-3.5-1 1.575-1 3.5m4.667-2.833c-.367.366-.667 1.889-.667 3.383 0 2.891 2.652 4.401 5.085 2.897.719-.444 2.11-.378 3.091.147 1.917 1.026 6.824.217 6.824-1.126 0-.448 1.419-.107 3.154.759 2.951 1.472 3.242 1.451 4.538-.32 1.516-2.073 1.396-5.486-.192-5.486-.55 0-1.139.88-1.308 1.955-.505 3.198-3.084 3.482-2.872.316.15-2.247-.274-2.744-2.57-3.008-2.471-.285-2.75-.006-2.75 2.75 0 2.547-.381 3.046-2.25 2.95-1.693-.087-1.817-.229-.5-.573.963-.252 1.75-.842 1.75-1.311s-.787-1.059-1.75-1.311c-1.667-.435-1.667-.463 0-.573 2.736-.181 2.051-2.116-.75-2.116-1.907 0-2.515.534-2.563 2.25l-.064 2.25-.904-2.25c-.857-2.132-3.858-3.028-5.302-1.583m25.03.083c-.231.412-.701 1.926-1.044 3.364l-.623 2.613h8.485c4.667 0 8.485-.367 8.485-.816 0-1.605-2.338-5.911-3.209-5.911-.488 0-1.523 1.463-2.3 3.25-.777 1.787-1.43 2.658-1.452 1.934-.021-.723.427-2.186.996-3.25 1.118-2.088.046-2.615-1.722-.847-.783.783-1.275.783-1.759 0-1.227-1.984-2.688-1.205-1.589.847.569 1.064 1.017 2.527.996 3.25-.022.724-.675-.147-1.452-1.934-1.347-3.099-2.903-4.12-3.812-2.5m17.97-.083c-.367.366-.667 1.889-.667 3.383 0 2.891 2.652 4.401 5.085 2.897.719-.444 2.11-.378 3.091.147 2.058 1.101 6.824.176 6.824-1.325 0-.62.537-.568 1.384.135 1.571 1.304 7.116 1.714 10.139.751 1.113-.355 3.569-.202 5.46.34 2.012.577 3.806.616 4.328.094.518-.518 2.177-.523 3.962-.011 3.815 1.094 5.671-.247 5.392-3.896-.18-2.363-.649-2.7-3.935-2.832-3.179-.128-3.739.167-3.793 2-.063 2.133-.071 2.133-.968-.1-.498-1.238-1.608-2.25-2.468-2.25-2.427 0-2.994 2.915-.876 4.498 1.788 1.338 1.775 1.377-.29.858-1.195-.301-2.436-1.623-2.769-2.95-.817-3.254-3.363-3.047-4.235.344l-.707 2.75-.605-2.5c-.549-2.267-1.136-2.521-6.312-2.726l-5.707-.226v2.976c0 2.454-.395 2.956-2.25 2.86-1.693-.087-1.817-.229-.5-.573.963-.252 1.75-.842 1.75-1.311s-.787-1.059-1.75-1.311c-1.667-.435-1.667-.463 0-.573 2.736-.181 2.051-2.116-.75-2.116-1.907 0-2.515.534-2.563 2.25l-.064 2.25-.904-2.25c-.857-2.132-3.858-3.028-5.302-1.583M179 161.393c0 1.866.563 3.575 1.25 3.797 3.083.998 17.136.153 17.538-1.054.309-.928.917-.808 2.316.458 1.686 1.526 1.896 1.539 1.896.12 0-.878-.457-1.879-1.016-2.224-1.328-.82-.271-2.49 1.575-2.49.87 0 1.441.99 1.441 2.5 0 1.375.45 2.5 1 2.5s1-1.125 1-2.5.45-2.5 1-2.5 1 1.125 1 2.5.45 2.5 1 2.5 1-.52 1-1.155c0-.641.923-.319 2.075.723 2.062 1.866 2.071 1.859 1.423-1.095l-.652-2.973 1.385 2.5c.879 1.585 2.096 2.39 3.327 2.2a49.196 49.196 0 013.442-.401c.825-.056 1.831-.596 2.235-1.2.507-.759.739-.713.75.151.008.688 1.14 1.25 2.515 1.25 2.16 0 2.5-.448 2.5-3.287 0-2.571-.436-3.32-2-3.438-1.243-.094-2 .466-2 1.478 0 1.372-.246 1.323-1.563-.312-1.073-1.332-1.722-1.56-2.071-.727-.389.927-.945.942-2.356.06-1.412-.881-2.2-.861-3.34.085-1.01.838-1.701.9-2.14.19-.9-1.456-12.849-1.33-14.33.151-.933.933-1.2.933-1.2 0 0-.66-.45-1.2-1-1.2s-1 1.35-1 3c0 2.479-.391 2.98-2.25 2.884-1.693-.087-1.817-.229-.5-.573.963-.252 1.75-.842 1.75-1.311s-.787-1.059-1.75-1.311c-1.667-.435-1.667-.463 0-.573 2.736-.181 2.051-2.116-.75-2.116-2.078 0-2.5.478-2.5 2.833 0 1.852-.52 2.834-1.5 2.834s-1.5-.982-1.5-2.834c0-3.632-1.766-3.707-2.184-.092-.212 1.84-.974 2.839-2.316 3.037-1.972.292-1.973.279-.044-.906 1.941-1.192 1.941-1.207 0-1.966-1.689-.661-1.717-.775-.206-.836 2.752-.11 2.043-2.07-.75-2.07-2.175 0-2.5.44-2.5 3.393m51 .107c0 1.925.45 3.5 1 3.5s1-.52 1-1.155c0-.655.866-.371 2 .655 1.742 1.576 2 1.604 2 .214 0-.878-.472-1.888-1.049-2.244-.714-.442-.669-1.105.143-2.083 1.587-1.912.362-3.01-1.57-1.407-1.042.865-1.524.91-1.524.142 0-.617-.45-1.122-1-1.122s-1 1.575-1 3.5m-13.823.053c.452 2.172 2.227 2.305 2.633.197.21-1.095-.28-1.75-1.31-1.75-.961 0-1.512.647-1.323 1.553m-68.098 1.03c.048 1.165.285 1.402.604.605.289-.722.253-1.585-.079-1.917-.332-.332-.568.258-.525 1.312m21.921-.698c0 .897 3.005 2.443 3.598 1.851.171-.172-.568-.861-1.643-1.532-1.075-.672-1.955-.815-1.955-.319" fill="#1976D2" fill-rule="evenodd"/><path fill-opacity=".284" d="M129.148 41.231c-2.316 7.816-2.795 17.901-1.132 23.887 1.504 5.414 4.984 10.01 10.269 13.562 4.575 3.075 15.074 6.294 16.354 5.014.345-.345-.84-2.298-2.634-4.341-6.322-7.2-13.914-21.336-15.497-28.853-.348-1.65.658-.075 2.235 3.5 3.427 7.77 9.011 16.604 12.553 19.86l2.568 2.36 1.178-4.36c3.287-12.162-3.215-26.264-15.758-34.18-7.44-4.695-7.721-4.596-10.136 3.551m39.43 21.254c-2.157.769-5.268 2.743-6.912 4.388-2.48 2.479-3.061 3.983-3.406 8.808l-.416 5.819 2.754-3.5c3.88-4.931 12.414-13 13.748-13 .616 0-1.123 1.973-3.863 4.385-2.741 2.412-5.796 5.787-6.79 7.5-1.742 3.004-1.742 3.114 0 3.093 2.65-.032 9.542-3.397 11.519-5.623 2.157-2.429 4.788-8.652 4.788-11.323 0-1.689-.633-2.025-3.75-1.988-2.062.024-5.515.673-7.672 1.441M68.702 88.632c-.386.386-.702 14.351-.702 31.035V150h20v-27.473l13.804 13.777 13.803 13.777 54.947-.29c54.061-.286 55.01-.326 58.946-2.444 5.599-3.013 8.173-6.111 9.509-11.443 2.088-8.336-2.225-16.665-9.586-18.513-2.925-.734-3.135-2.03-.467-2.877 6.785-2.154 9.454-13.496 4.548-19.327-4.855-5.77-8.604-6.545-33.504-6.928-12.375-.191-31.206.011-41.846.447-10.641.437-19.555.456-19.809.044-.255-.412-5.544-.75-11.754-.75h-11.29L101.9 100.208l-13.4 12.207-.5-11.957-.5-11.958-9.048-.285c-4.977-.157-9.365.031-9.75.417m66.951 3.199c-.912 1.007-1.319 2.17-.905 2.583.414.414.077.603-.748.419-.825-.183-1.393.213-1.262.881s-.333.995-1.031.727c-.699-.268-2.831 1.126-4.738 3.097-2.548 2.633-2.938 3.411-1.469 2.929 1.51-.495 1.654-.41.591.346-.775.551-1.9.837-2.5.635-.6-.202-4.369 2.653-8.374 6.343l-7.284 6.709 6.292 6.232c6.183 6.123 6.34 6.206 9.066 4.792 1.526-.792 2.491-.98 2.143-.418-.416.673.681.774 3.218.295 2.116-.4 4.748-.811 5.848-.914 1.1-.102 2.781-.525 3.736-.938.955-.414 3.782-.59 6.282-.391 3.676.292 4.238.136 2.936-.816-.886-.647-2.903-1.013-4.484-.813-2.409.305-3.524-.413-6.9-4.445l-4.026-4.809 9.488-8.727c5.219-4.8 10.722-9.132 12.229-9.628 2.035-.669 1.455-.752-2.261-.321-2.75.319-5.15.99-5.333 1.491-.184.5-.773.91-1.309.91-.537 0-.717-.419-.401-.931.317-.512.091-1.231-.502-1.597-.593-.366-1.526-1.845-2.074-3.285-.803-2.111-1.176-2.335-1.923-1.153-.63.996-.932 1.065-.943.216-.022-1.788-1.44-1.543-3.362.581m8.061.453c.289 1.51.921 2.99 1.405 3.29 1.39.859 1.026-1.993-.524-4.114-1.314-1.796-1.372-1.743-.881.824M164 97.5c0 4.333-.422 7.5-1 7.5-.814 0-1.465-3.378-1.174-6.083.035-.321-.602-.584-1.415-.584-1.017 0-1.155.323-.444 1.034.568.568 1.033 2.209 1.033 3.645 0 1.96-2.125 4.692-8.5 10.93-4.675 4.574-8.5 8.385-8.5 8.469 0 .084 1.192.251 2.649.372s3.209.684 3.894 1.253c.88.73 1.682.597 2.732-.454.818-.818 1.838-1.171 2.266-.784.429.386.522.247.208-.309-.799-1.412 1.874-4.907 2.714-3.549.36.583.123 1.06-.526 1.06-.832 0-.875.37-.144 1.25 1.536 1.851 1.322 2.978-1.09 5.75-1.197 1.375-.164.7 2.295-1.5s4.703-4.184 4.987-4.409c.283-.225-.278-.125-1.247.223-1.479.531-1.673.195-1.207-2.091.545-2.672.529-2.667-.817.277l-1.372 3-.012-3.5c-.008-2.309.634-3.959 1.887-4.847 1.804-1.28 1.811-1.412.137-2.636-1.491-1.091-1.574-1.651-.539-3.653l1.223-2.364-.38 2.75c-.209 1.513.007 2.75.481 2.75.473 0 .92-1.013.993-2.25.087-1.5.377-1.083.868 1.25s.781-.418.868-8.25c.073-6.463-.093-11.75-.368-11.75s-.5 3.375-.5 7.5m-125.5 5.717c-11.217 3.958-21.768 18.782-21.87 30.725-.058 6.778 1.757 10.728 6.37 13.86 4.963 3.369 11.606 2.685 21.527-2.218 6.943-3.431 9.607-5.783 8.175-7.215-.3-.3-2.493.59-4.873 1.977C35.143 147.738 26 145.328 26 134.592c0-3.24.113-3.327 5.115-3.919 14.46-1.713 25.479-13.53 21.498-23.056-2.263-5.418-7.024-6.902-14.113-4.4M185 107v5h13.845c12.143 0 14.048-.225 15.5-1.829 2.268-2.506 2.075-4.764-.568-6.614-1.74-1.219-5.101-1.557-15.5-1.557H185v5m-151.535 4.375C29.734 115.269 26 122.923 26 126.678c0 3.401 11.757-.499 15.97-5.297 2.36-2.688 3.03-4.393 3.03-7.716 0-8.076-5.033-9.076-11.535-2.29m118.515 10.149c-.696.838-1.071 1.718-.835 1.955.237.236.98-.449 1.651-1.524 1.452-2.325.968-2.58-.816-.431m33.218 8.726l.302 5.25 13.5.25c15.38.285 18.297-.524 18.836-5.224.563-4.912-1.447-5.526-18.079-5.526h-14.862l.303 5.25m-140.019-1.335c-.558 1.603-.752 3.178-.431 3.5.322.322 4.545.585 9.383.585 7.675 0 8.931-.247 9.834-1.934 2.452-4.582 1.654-5.066-8.367-5.066h-9.402l-1.017 2.915m74.434-1.732c.289.467.944.591 1.456.274 1.308-.808 1.161-1.124-.525-1.124-.801 0-1.22.383-.931.85M20 161.3c0 2.035.45 3.7 1 3.7s1-.505 1-1.122c0-.783.379-.81 1.25-.09.963.796 8.75 1.386 8.75.663 0-1.274-2.407-6.451-3-6.451-.442 0-1.287 1.384-1.876 3.075-1.291 3.703-3.599 2.953-2.642-.859.53-2.11.398-2.361-.743-1.414-1.047.869-1.675.862-2.563-.026-.901-.901-1.176-.312-1.176 2.524m13.015.38c.011 2.785.271 3.416.959 2.328.751-1.188 1.196-1.238 2.184-.25 1.613 1.613 3.186 1.608 2.188-.007-.424-.687-.788-2.149-.809-3.25-.024-1.299-.826-2.113-2.287-2.321-1.998-.283-2.248.108-2.235 3.5M39 158.969c0 .567.42 1.031.934 1.031.513 0 1.121 1.238 1.35 2.75l.416 2.75.15-2.75c.189-3.463 1.727-3.573 2.577-.185.486 1.935 1.187 2.488 2.858 2.25 1.703-.242 2.289-1.091 2.536-3.668.21-2.194-.049-3.124-.75-2.691-.589.364-1.071 1.76-1.071 3.103 0 1.343-.45 2.441-1 2.441s-1-1.258-1-2.796c0-2.483-.391-2.822-3.5-3.031-1.925-.13-3.5.228-3.5.796m14.667-.302C52.613 159.72 52.891 165 54 165c.55 0 1-.45 1-1s.638-1 1.417-1 1.643-.562 1.921-1.25c.277-.687.54-.238.583 1 .066 1.885.606 2.228 3.329 2.114 2.35-.099 2.627-.256 1-.57-2.654-.511-3.025-2.263-.5-2.364 1.496-.06 1.46-.195-.25-.93-1.71-.735-1.746-.87-.25-.93.962-.038 1.75-.52 1.75-1.07 0-1.349-3.71-1.278-4.554.087-.484.783-.976.783-1.759 0-1.227-1.227-3.026-1.415-4.02-.42M65 159c0 .55.42 1 .934 1 .513 0 1.121 1.238 1.35 2.75l.416 2.75.15-2.75c.083-1.512.6-2.75 1.15-2.75.55 0 1-.45 1-1s-1.125-1-2.5-1-2.5.45-2.5 1m5.975 1.565c-1.433 3.77-1.328 3.914 3.03 4.162 3.196.182 4.001-.118 4.025-1.5.029-1.622.093-1.62 1.05.023 1.557 2.673 2.92 2.089 2.92-1.25 0-2.798-1.964-4.49-2.03-1.75-.017.688-.495.453-1.062-.521-1.368-2.35-2.898-1.27-2.947 2.08-.039 2.67-.05 2.665-1.452-.559-1.704-3.921-2.262-4.029-3.534-.685m12.277.935c.011 2.2.216 2.982.455 1.738.239-1.244.23-3.044-.02-4s-.446.062-.435 2.262m4.748-.07c0 3.165.291 3.57 2.563 3.57 2.29 0 2.53-.347 2.25-3.25-.24-2.491-.838-3.325-2.563-3.57-1.973-.28-2.25.121-2.25 3.25m6.667-2.763c-.367.366-.667 1.941-.667 3.5 0 2.452.37 2.817 2.75 2.717 1.692-.071 2.077-.292 1-.573-.963-.252-1.75-.875-1.75-1.384 0-.51.787-.959 1.75-.997 1.496-.06 1.46-.195-.25-.93-1.71-.735-1.746-.87-.25-.93.963-.038 1.75-.52 1.75-1.07 0-1.117-3.296-1.371-4.333-.333M100 161.5c0 1.925.45 3.5 1 3.5s1-.54 1-1.2c0-.933.267-.933 1.2 0 .66.66 2.46 1.2 4 1.2 2.592 0 2.79-.278 2.668-3.75-.127-3.618-.153-3.645-.75-.75-.568 2.76-1.092 3.065-4.49 2.615-.48-.063-.378-.711.226-1.439 1.349-1.626-.354-3.676-3.054-3.676-1.39 0-1.8.796-1.8 3.5m12.098-.351c-.604 1.732-1.098 3.243-1.098 3.357 0 .114 1.349.159 2.998.1 3.316-.117 3.431-.347 2.027-4.041-1.303-3.426-2.596-3.234-3.927.584m5.368-1.649c.419 1.1.991 2.803 1.273 3.785.437 1.52.716 1.392 1.887-.865 1.769-3.411 1.792-5.012.05-3.566-.969.804-1.678.77-2.647-.128-1.077-.997-1.182-.853-.563.774m5.575.892c-1.478 3.888-1.381 4.096 1.983 4.216 2.623.093 2.938-.17 2.391-2-.346-1.16-1.238-2.748-1.981-3.531-1.158-1.219-1.501-1.03-2.393 1.315M131 161.43c0 3.165.291 3.57 2.563 3.57 2.29 0 2.53-.347 2.25-3.25-.24-2.491-.838-3.325-2.563-3.57-1.973-.28-2.25.121-2.25 3.25m6.667-2.763c-.367.366-.667 1.941-.667 3.5 0 2.452.37 2.817 2.75 2.717 1.692-.071 2.077-.292 1-.573-.963-.252-1.75-.875-1.75-1.384 0-.51.787-.959 1.75-.997 1.496-.06 1.46-.195-.25-.93-1.71-.735-1.746-.87-.25-.93.963-.038 1.75-.52 1.75-1.07 0-1.117-3.296-1.371-4.333-.333M143 161.5c0 1.925.45 3.5 1 3.5s1-.505 1-1.122c0-.799.414-.779 1.435.068.789.655 2.919 1.047 4.734.872 2.778-.268 3.331-.745 3.502-3.021.229-3.069-2.817-4.75-5.13-2.831-.937.778-1.565.804-2.011.083-.356-.577-1.521-1.049-2.589-1.049-1.552 0-1.941.702-1.941 3.5m14.683-2.796c-.343.555-1.032 2.085-1.533 3.402-.891 2.347-.794 2.397 4.97 2.564 5.19.15 5.88-.056 5.88-1.75 0-1.135-.715-1.949-1.75-1.99-1.489-.06-1.452-.193.25-.893 1.884-.775 1.895-.865.183-1.562-1.053-.429-2.315-.234-3 .463-.914.93-.675 1.619 1.045 3.026l2.229 1.822-2.478-.143c-1.363-.079-2.478-.619-2.478-1.202-.002-1.827-2.653-4.813-3.318-3.737M168 161.2c0 3.507.095 3.596 3.668 3.45 4.284-.175 5.53-2.239 2.166-3.588-2.021-.81-2.073-.944-.384-.999 1.477-.048 1.669-.344.792-1.221-.864-.864-1.504-.87-2.523-.023-1.021.847-1.664.836-2.543-.043-.901-.901-1.176-.336-1.176 2.424m11 .3c0 3.18.252 3.489 2.75 3.384 1.692-.071 2.077-.292 1-.573-.963-.252-1.75-.875-1.75-1.384 0-.51.787-.959 1.75-.997 1.496-.06 1.46-.195-.25-.93-1.71-.735-1.746-.87-.25-.93 2.752-.11 2.043-2.07-.75-2.07-2.19 0-2.5.433-2.5 3.5m6-.059V165l5.25-.116c2.887-.064 4.463-.322 3.5-.573-.963-.252-1.75-.875-1.75-1.384 0-.51.787-.959 1.75-.997 1.496-.06 1.46-.195-.25-.93-1.71-.735-1.746-.87-.25-.93.963-.038 1.75-.551 1.75-1.14 0-.588-1.012-.925-2.25-.75-1.611.229-2.34 1.101-2.566 3.07-.399 3.46-3.184 3.73-3.184.309 0-1.343-.45-2.719-1-3.059-.595-.368-1 .823-1 2.941m14.527-2.485c-.325.526-1.252.703-2.059.393-1.097-.42-1.468.223-1.468 2.544 0 1.709.45 3.107 1 3.107s1-.54 1-1.2c0-.933.267-.933 1.2 0 1.861 1.861 2.986 1.416 1.839-.728-.568-1.06-.76-2.635-.428-3.5.657-1.712-.13-2.159-1.084-.616M202 159c0 .55.45 1 1 1s1 1.125 1 2.5.45 2.5 1 2.5 1-.863 1-1.918.273-2.63.607-3.5c.458-1.193-.034-1.582-2-1.582-1.434 0-2.607.45-2.607 1m6.667-.333c-1.054 1.053-.776 6.333.333 6.333.55 0 1-.54 1-1.2 0-.933.267-.933 1.2 0 1.835 1.835 2.658 1.438 2.18-1.05l-.432-2.25 1.179 2.25c1.261 2.406 5.862 3.188 5.888 1 .011-.836.342-.753 1 .25.817 1.244 1.134 1.268 1.86.143.61-.946 1.082-1.022 1.559-.25 1.269 2.054 2.566 1.126 2.566-1.834 0-3.129-1.978-5.434-2.032-2.368-.03 1.745-.08 1.745-1.404-.001-.845-1.115-1.619-1.411-2.014-.77-.437.706-1.243.664-2.515-.13-1.459-.912-2.231-.872-3.496.178-1.23 1.02-1.905 1.066-2.781.19-1.29-1.29-3.078-1.505-4.091-.491m19.585 2.833c.011 2.2.216 2.982.455 1.738.239-1.244.23-3.044-.02-4s-.446.062-.435 2.262m5.275-2.544c-.325.526-1.252.703-2.059.393-1.097-.42-1.468.223-1.468 2.544 0 1.709.45 3.107 1 3.107s1-.54 1-1.2c0-.933.267-.933 1.2 0 1.911 1.911 2.973 1.391 1.766-.864-.82-1.532-.798-2.434.087-3.5.775-.934.82-1.436.128-1.436-.584 0-1.329.43-1.654.956m-198.714 1.727c.721.289 1.584.253 1.916-.079.332-.332-.258-.568-1.312-.525-1.165.048-1.402.285-.604.604m181.187 1.4c0 2.437 2.337 2.093 2.823-.416.192-.987-.318-1.667-1.25-1.667-.927 0-1.573.855-1.573 2.083m-68.457-.152c-.317.512-.118 1.213.441 1.559.559.345 1.016-.074 1.016-.931 0-1.757-.6-2.015-1.457-.628m22.457-.073c0 1.028 3.029 2.446 3.729 1.747.243-.244-.496-.945-1.643-1.559-1.148-.614-2.086-.699-2.086-.188M89.5 163c-.34.55-.141 1 .441 1S91 163.55 91 163s-.198-1-.441-1-.719.45-1.059 1m43 0c-.34.55-.141 1 .441 1s1.059-.45 1.059-1-.198-1-.441-1-.719.45-1.059 1m18.5 0c0 .55.45 1 1 1s1-.45 1-1-.45-1-1-1-1 .45-1 1" fill="#1976D2" fill-rule="evenodd"/><path fill-opacity=".987" d="M131.186 36.702c-.515.989-1.714 4.938-2.665 8.775-2.876 11.61-.715 22.588 5.78 29.358 4.068 4.242 7.118 5.819 14.642 7.575l6.043 1.409-3.337-4.159c-7.664-9.556-12.734-19.185-16.009-30.41-2.14-7.333-.383-6.578 2.328 1 2.68 7.491 5.905 13.375 11.337 20.685 3.513 4.727 4.138 5.183 4.797 3.5 1.322-3.378.955-15.023-.615-19.472-1.89-5.356-7.32-12.068-12.8-15.821-5.874-4.023-8.346-4.658-9.501-2.44M68.235 119.25l.265 30.25 9.25.288 9.25.287v-14.037c0-7.721.367-14.038.815-14.038.449 0 6.784 6.3 14.079 14l13.263 14h25.32l-16.238-16.261c-8.932-8.944-16.208-16.706-16.171-17.25.038-.544 6.796-6.952 15.019-14.239L138.038 89l-11.769.035-11.769.035-13 11.93c-7.15 6.561-13.338 11.945-13.75 11.965-.412.019-.75-5.365-.75-11.965V89H67.971l.264 30.25M166 104.351v15.462l-7.092 6.566c-3.901 3.612-6.939 6.99-6.75 7.508.188.517 3.256 4.355 6.817 8.527l6.476 7.586 25.024-.006c13.764-.003 27.67-.439 30.903-.968 11.583-1.897 16.654-6.37 17.399-15.347.649-7.828-1.734-12.353-7.937-15.076-2.636-1.157-4.803-2.331-4.816-2.609-.013-.278 1.366-1.121 3.066-1.873 9.397-4.16 8.961-17.895-.722-22.701-3.5-1.737-6.654-1.949-33.118-2.226L166 88.889v15.462m-13.5-7.353c-1.1.416-6.05 4.597-11 9.291l-9 8.535 4.394 4.523 4.394 4.522 8.762-8.08c9.119-8.41 11.426-11.715 10.41-14.915-.815-2.569-5.45-4.826-7.96-3.876M185 107v5h14.3c9.789 0 14.679-.379 15.5-1.2 1.901-1.901 1.458-6.592-.734-7.765-1.064-.569-8.039-1.035-15.5-1.035H185v5m-149.752-1.894c-5.17 2.56-12.275 10.255-15.383 16.663-1.359 2.803-2.455 7.225-2.688 10.852-.995 15.471 9.353 21.005 25.307 13.535 3.842-1.799 7.779-3.989 8.75-4.868 3.478-3.147 1.665-3.22-4.161-.166-11.175 5.858-18.888 4.807-21.018-2.863-1.803-6.494-1.568-6.933 4.113-7.687 13.141-1.743 22.82-9.861 22.828-19.148.008-8.033-8.305-10.992-17.748-6.318m2.116 2.337c-1.724.75-4.49 3.333-6.145 5.739-2.889 4.199-6.565 14.138-5.59 15.114.258.258 2.341.049 4.628-.465 10.169-2.285 14.991-6.912 15.15-14.536.069-3.328-.398-4.815-1.848-5.875-2.32-1.697-2.241-1.698-6.195.023M185.75 124.58c-.412.414-.75 3.153-.75 6.087V136h14.845c13.112 0 15.038-.214 16.5-1.829 2.123-2.346 2.125-6.536.003-8.299-1.821-1.513-29.226-2.67-30.598-1.292m-140.12 3.67c-.331 1.238-.609 2.588-.616 3-.008.412 4.209.75 9.369.75 8.886 0 9.416-.119 9.987-2.25.331-1.238.609-2.588.616-3 .008-.412-4.209-.75-9.369-.75-8.886 0-9.416.119-9.987 2.25m117.466 31.054c-.864.864-.585 1.608 1.128 3.007l2.276 1.859-2.251-.492c-1.239-.27-2-.083-1.691.415.787 1.275 3.187 1.129 4.036-.245.391-.633-.032-1.695-.941-2.36-2.063-1.508-2.154-2.618-.153-1.85.825.317 1.5.351 1.5.076 0-1.165-2.85-1.464-3.904-.41M20.046 162c.012 2.945.183 3.211 1.073 1.68 1.024-1.759 1.104-1.759 2.438 0 .759 1.001 1.394 1.284 1.411.629.018-.655-.44-1.483-1.017-1.839-.716-.443-.678-1.094.123-2.059.771-.929.808-1.411.107-1.411-.584 0-1.371.498-1.747 1.107-.477.771-.944.696-1.544-.25-.573-.905-.854-.191-.844 2.143m7.092.034c-.627 1.798-.667 2.793-.098 2.441.528-.326.96-1.241.96-2.034 0-2.247 1.701-1.692 2.344.765.317 1.214.836 1.947 1.154 1.63.712-.712-1.536-5.836-2.561-5.836-.408 0-1.217 1.365-1.799 3.034m5.978.216c.066 1.835.321 2.455.588 1.425.432-1.672.619-1.693 2.217-.246 1.624 1.469 1.746 1.37 1.746-1.425 0-1.652-.402-3.004-.893-3.004-.49 0-.614.45-.274 1 .34.55-.11 1-1 1s-1.34-.45-1-1c.34-.55.141-1-.441-1s-1.007 1.463-.943 3.25m7.671-.25c.242 1.65.563 3 .713 3 .15 0 .471-1.35.713-3 .272-1.854 0-3-.713-3s-.985 1.146-.713 3m4.617 0c.069 1.801.655 2.5 2.096 2.5 1.512 0 2.048-.732 2.196-3 .177-2.7.124-2.758-.527-.574-.969 3.247-2.924 3.749-3.443.883-.385-2.12-.411-2.105-.322.191m8.596-.01c0 2.895.064 2.936 2 1.278 1.1-.942 2-2.287 2-2.99 0-.703-.9-1.278-2-1.278-1.554 0-2 .667-2 2.99m6.015-.24c-.013 2.742.337 3.232 2.235 3.134 1.693-.087 1.817-.229.5-.573-.962-.252-1.75-.875-1.75-1.384 0-.51.788-.963 1.75-1.006 1.394-.063 1.445-.195.25-.65-.825-.314-1.831-1.066-2.235-1.671-.404-.605-.741.363-.75 2.15m6.772.25c.242 1.65.563 3 .713 3 .15 0 .471-1.35.713-3 .272-1.854 0-3-.713-3s-.985 1.146-.713 3m4.188-.435c-1.227 3.228-1.223 3.706.025 2.935.55-.34 1.02-1.604 1.045-2.809.039-1.887.236-1.774 1.419.809 1.36 2.971 2.166 1.306.929-1.918-.896-2.334-2.311-1.927-3.418.983m6.088.485c.06 3.242.122 3.304 1.031 1.03.64-1.602.619-2.767-.064-3.45-.707-.707-1.01.052-.967 2.42m3.575-1.55c.317.825.092 1.5-.5 1.5-.595 0-.788.748-.432 1.677.576 1.5.723 1.474 1.399-.25 1.076-2.748 1.048-4.427-.074-4.427-.532 0-.709.675-.393 1.5m2.594 1.5c0 1.925.206 2.713.457 1.75.252-.963.252-2.537 0-3.5-.251-.963-.457-.175-.457 1.75m4.768.07c0 2.604.338 3.021 2.232 2.75 1.626-.233 2.289-1.067 2.44-3.07.115-1.512-.241-2.75-.791-2.75-.549 0-.721.45-.381 1 .34.55-.11 1-1 1s-1.34-.45-1-1c.34-.55.141-1-.441-1S88 160.381 88 162.07m6-.07c0 2.63.339 2.988 2.75 2.9l2.75-.099-2.5-.703c-2.42-.679-2.436-.739-.5-1.87 1.814-1.059 1.832-1.17.191-1.198-.995-.016-1.531-.48-1.191-1.03.34-.55.141-1-.441-1S94 160.35 94 162m6.03.25c.026 2.772.187 2.982 1.089 1.43.995-1.711 1.133-1.717 2.313-.103 1.108 1.514 1.266 1.346 1.345-1.431.049-1.73-.357-3.146-.903-3.146s-.714.45-.374 1c.34.55-.11 1-1 1s-1.34-.45-1-1c.34-.55.141-1-.441-1s-1.045 1.463-1.029 3.25m9.106-.893c-.109 2.284-.487 2.723-1.886 2.191-1.403-.534-1.502-.417-.5.593 1.744 1.756 3.548-.233 2.971-3.276-.397-2.095-.464-2.039-.585.492m2.975.755c-.942 2.7-.89 2.949.391 1.886.812-.673 1.249-1.593.971-2.042-.278-.45-.048-1.1.511-1.446.559-.345 1.016.272 1.016 1.372s.45 2.278 1 2.618c1.248.771 1.252.293.025-2.935-1.299-3.417-2.595-3.236-3.914.547M118 160.2c.55.66 1.052 2.122 1.116 3.25.114 2.008.126 2.009.608.05.27-1.1 1.005-2.675 1.634-3.5.963-1.265.896-1.308-.432-.274-1.041.812-1.971.896-2.75.25-.847-.703-.897-.641-.176.224m4.975 1.365c-1.227 3.228-1.223 3.706.025 2.935.55-.34 1-1.518 1-2.618 0-1.1.457-1.717 1.016-1.372.559.346.789.996.511 1.446-.278.449.159 1.369.971 2.042 1.281 1.063 1.333.814.391-1.886-1.319-3.783-2.615-3.964-3.914-.547m8.025.505c0 2.604.338 3.021 2.232 2.75 1.626-.233 2.289-1.067 2.44-3.07.115-1.512-.241-2.75-.791-2.75-.549 0-.721.45-.381 1 .34.55-.11 1-1 1s-1.34-.45-1-1c.34-.55.141-1-.441-1S131 160.381 131 162.07m6-.07c0 2.63.339 2.988 2.75 2.9l2.75-.099-2.5-.703c-2.42-.679-2.436-.739-.5-1.87 1.814-1.059 1.832-1.17.191-1.198-.995-.016-1.531-.48-1.191-1.03.34-.55.141-1-.441-1S137 160.35 137 162m6.03.25c.026 2.772.187 2.982 1.089 1.43.995-1.711 1.133-1.717 2.313-.103 1.108 1.514 1.266 1.346 1.345-1.431.049-1.73-.357-3.146-.903-3.146s-.714.45-.374 1c.34.55-.11 1-1 1s-1.34-.45-1-1c.34-.55.141-1-.441-1s-1.045 1.463-1.029 3.25m6.985-.5c-.012 2.556.4 3.25 1.926 3.25 2.467 0 3.115-1.068 2.372-3.911-.445-1.702-.802-1.93-1.452-.924-.705 1.093-1.039 1.063-1.846-.165-.753-1.147-.988-.735-1 1.75m6.615-.5c-.993 3.708-.555 4.447.808 1.361l1.276-2.888.691 2.756c.381 1.516.917 2.532 1.192 2.257.938-.938-.81-5.736-2.089-5.736-.701 0-1.546 1.012-1.878 2.25m11.602.75c0 1.925.206 2.713.457 1.75.252-.963.252-2.537 0-3.5-.251-.963-.457-.175-.457 1.75m2.768-1.49a1.5 1.5 0 001.5 1.49c.825 0 1.5.498 1.5 1.107s-.675.848-1.5.531c-.825-.316-1.5-.139-1.5.393 0 .533.9.969 2 .969s2-.575 2-1.278c0-.703-.9-2.048-2-2.99-1.673-1.432-2-1.468-2-.222m8 1.49c0 2.639.331 2.984 2.75 2.864 2.358-.117 2.429-.198.5-.57-2.679-.516-2.956-1.963-.5-2.605 1.617-.422 1.613-.466-.059-.573-.995-.064-1.531-.566-1.191-1.116.34-.55.141-1-.441-1S179 160.35 179 162m6.15-.25c-.128 2.779.176 3.233 2.1 3.134 1.596-.082 1.759-.246.56-.562-.929-.245-1.874-1.655-2.1-3.134-.37-2.427-.425-2.372-.56.562m5.034 0c.243 2.12.889 2.792 2.816 2.935 1.444.106 1.761-.03.75-.324-.963-.279-1.75-.892-1.75-1.361s.787-1.059 1.75-1.311c1.667-.435 1.667-.463 0-.573-.963-.064-1.75-.566-1.75-1.116 0-.55-.48-1-1.066-1-.587 0-.924 1.238-.75 2.75m5.816.441c0 3.005.083 3.078 1.429 1.25 1.331-1.809 1.474-1.822 2.107-.191.373.963 1.135 1.75 1.693 1.75.59 0 .498-.624-.218-1.487-.679-.818-.974-2.168-.654-3 .319-.832.144-1.513-.388-1.513-.533 0-.969.45-.969 1s-.477 1-1.059 1-.781-.45-.441-1 .141-1-.441-1-1.059 1.436-1.059 3.191m7.787-.191c.242 1.65.563 3 .713 3 .15 0 .471-1.35.713-3 .272-1.854 0-3-.713-3s-.985 1.146-.713 3m4.243.25c.027 2.872.16 3.027 1.143 1.334 1.02-1.757 1.211-1.779 2.318-.266 1.043 1.427 1.217 1.247 1.29-1.334.047-1.641-.361-2.984-.907-2.984s-.714.45-.374 1c.34.55-.11 1-1 1s-1.34-.45-1-1c.34-.55.141-1-.441-1s-1.045 1.463-1.029 3.25m7.154-.5c.227 1.978.878 2.75 2.316 2.75 1.438 0 2.089-.772 2.316-2.75.174-1.512-.101-2.75-.611-2.75s-.713 1.125-.45 2.5c.361 1.889.054 2.5-1.255 2.5s-1.616-.611-1.255-2.5c.263-1.375.06-2.5-.45-2.5s-.785 1.238-.611 2.75m6.816-1.309c0 .857.45 1.559 1 1.559s1-.423 1-.941-.45-1.219-1-1.559c-.55-.34-1 .084-1 .941m2.649.792c-.321 1.228-.148 2.668.384 3.2.623.623.967-.172.967-2.233 0-3.74-.527-4.117-1.351-.967m3.583.767c0 1.925.206 2.713.457 1.75.252-.963.252-2.537 0-3.5-.251-.963-.457-.175-.457 1.75m2.124-.501c.144 2.504 1.616 3.603 1.676 1.251.019-.763.549-.569 1.36.5.731.963 1.671 1.75 2.091 1.75.419 0 .206-.669-.472-1.487-.679-.818-.933-2.281-.564-3.25.538-1.414.422-1.515-.588-.513-1.501 1.49-3.239 1.674-2.359.25.34-.55.189-1-.335-1s-.889 1.125-.809 2.499M55 161c0 .55.45 1 1 1s1-.45 1-1-.45-1-1-1-1 .45-1 1m34 2c0 .55.675 1 1.5 1s1.5-.45 1.5-1-.675-1-1.5-1-1.5.45-1.5 1m43 0c0 .55.675 1 1.5 1s1.5-.45 1.5-1-.675-1-1.5-1-1.5.45-1.5 1m19 0c0 .55.702 1 1.559 1s1.281-.45.941-1c-.34-.55-1.041-1-1.559-1s-.941.45-.941 1" fill="#1976D2" fill-rule="evenodd"/></svg>